<?xml version="1.0"?>
<svg xmlns="http://www.w3.org/2000/svg" xmlns:xlink="http://www.w3.org/1999/xlink" xmlns:svgjs="http://svgjs.com/svgjs" version="1.1" width="33" height="33" x="0" y="0" viewBox="0 0 286.054 286.054" style="enable-background:new 0 0 512 512" xml:space="preserve" class=""><circle r="143.027" cx="143.027" cy="143.027" fill="#ff432e" shape="circle" transform="matrix(0.68,0,0,0.68,45.76863769531249,45.76863769531249)"/><g transform="matrix(0.7,0,0,0.7,42.90809783935548,42.90809783935548)">
<g xmlns="http://www.w3.org/2000/svg">
	<path style="" d="M143.027,0C64.04,0,0,64.04,0,143.027c0,78.996,64.04,143.027,143.027,143.027   s143.027-64.031,143.027-143.027C286.054,64.04,222.014,0,143.027,0z M143.027,259.236c-64.183,0-116.209-52.026-116.209-116.209   S78.844,26.818,143.027,26.818s116.209,52.026,116.209,116.209S207.21,259.236,143.027,259.236z M175.047,80.39h-63.674   c-9.672,0-13.007,5.927-13.007,12.041c0,5.936,3.522,12.041,13.007,12.041H156.4l-43.963,82.714   c-1.243,2.431-1.761,4.005-1.761,6.105c0,5.06,4.925,12.39,14.598,12.39c7.92,0,9.851-3.486,14.768-13.257l43.614-87.944   c2.11-4.362,4.049-8.018,4.049-11.514C187.705,88.409,184.013,80.39,175.047,80.39z" fill="#ffffff" data-original="#2394bc"/>
</g>
<g xmlns="http://www.w3.org/2000/svg">
</g>
<g xmlns="http://www.w3.org/2000/svg">
</g>
<g xmlns="http://www.w3.org/2000/svg">
</g>
<g xmlns="http://www.w3.org/2000/svg">
</g>
<g xmlns="http://www.w3.org/2000/svg">
</g>
<g xmlns="http://www.w3.org/2000/svg">
</g>
<g xmlns="http://www.w3.org/2000/svg">
</g>
<g xmlns="http://www.w3.org/2000/svg">
</g>
<g xmlns="http://www.w3.org/2000/svg">
</g>
<g xmlns="http://www.w3.org/2000/svg">
</g>
<g xmlns="http://www.w3.org/2000/svg">
</g>
<g xmlns="http://www.w3.org/2000/svg">
</g>
<g xmlns="http://www.w3.org/2000/svg">
</g>
<g xmlns="http://www.w3.org/2000/svg">
</g>
<g xmlns="http://www.w3.org/2000/svg">
</g>
</g></svg>
